<svg width="80" height="80" viewBox="0 0 80 80" fill="none" xmlns="http://www.w3.org/2000/svg">
<path d="M69.775 29.475C70.215 31.455 70.47 33.49 70.47 35.58C70.47 51.72 56.77 65.175 38.73 68.065C42.545 69.605 46.82 70.505 51.375 70.505C55.67 70.505 59.725 69.715 63.385 68.34C68.02 69.92 73.08 70.33 77.265 70.33C75.3752 68.0638 73.7746 65.5713 72.5 62.91C77.14 58.77 80 53.285 80 47.245C80 40.105 76.015 33.74 69.775 29.475ZM62.97 35.58C62.97 21.455 48.875 10 31.485 10C14.095 10 0 21.455 0 35.58C0 42.95 3.855 49.57 9.995 54.24C8.45519 58.1839 6.2853 61.8516 3.57 65.1C9.86 65.1 17.96 64.275 24.195 60.445C26.54 60.9 28.975 61.165 31.485 61.165C48.875 61.16 62.97 49.71 62.97 35.58Z" fill="#F3F3F3"/>
</svg>
